<svg width="142" height="142" viewBox="0 0 142 142" fill="none" xmlns="http://www.w3.org/2000/svg">
<path d="M53.25 5.91699V17.7503H88.75V5.91699H100.583V17.7503H124.25C127.518 17.7503 130.167 20.3993 130.167 23.667V118.334C130.167 121.601 127.518 124.25 124.25 124.25H17.75C14.4823 124.25 11.8333 121.601 11.8333 118.334V23.667C11.8333 20.3993 14.4823 17.7503 17.75 17.7503H41.4167V5.91699H53.25ZM118.333 59.167H23.6667V112.417H118.333V59.167ZM88.96 65.8883L97.3274 74.2563L68.0417 103.542L47.1231 82.6236L55.4905 74.2563L68.0417 86.8073L88.96 65.8883ZM41.4167 29.5837H23.6667V47.3337H118.333V29.5837H100.583V35.5003H88.75V29.5837H53.25V35.5003H41.4167V29.5837Z" fill="black"/>
</svg>
