<svg width="142" height="142" viewBox="0 0 142 142" fill="none" xmlns="http://www.w3.org/2000/svg">
<path d="M124.279 17.75C127.547 17.75 130.196 20.399 130.196 23.6667V56.2083C122.027 56.2083 115.404 62.8309 115.404 71C115.404 79.1691 122.027 85.7917 130.196 85.7917V118.333C130.196 121.601 127.547 124.25 124.279 124.25H17.7789C14.5112 124.25 11.8622 121.601 11.8622 118.333V85.7917C20.0314 85.7917 26.6539 79.1691 26.6539 71C26.6539 62.8309 20.0314 56.2083 11.8622 56.2083V23.6667C11.8622 20.399 14.5112 17.75 17.7789 17.75H124.279ZM118.362 29.5833H23.6955V47.144L24.6179 47.6237C32.5378 51.9545 38.0155 60.1932 38.4582 69.7468L38.4872 71C38.4872 81.0832 32.8822 89.857 24.6179 94.3762L23.6955 94.8501V112.417H118.362V94.8501L117.44 94.3762C109.52 90.0457 104.042 81.8068 103.6 72.2531L103.571 71C103.571 60.9168 109.176 52.1428 117.44 47.6237L118.362 47.144V29.5833ZM94.6957 53.25V88.75H47.3622V53.25H94.6957Z" fill="black"/>
</svg>
