<svg width="181" height="45" viewBox="0 0 181 45" fill="none" xmlns="http://www.w3.org/2000/svg">
<g clip-path="url(#clip0_93_462)">
<path d="M19.1442 32.5646L43.7306 26.0848C44.4212 25.901 44.9396 25.4754 45.2859 24.8081C45.6321 24.1409 45.7122 23.4635 45.5262 22.776C45.3421 22.0866 44.9396 21.5701 44.319 21.2263C43.6983 20.8826 43.0418 20.8017 42.3493 20.9837L35.5812 22.776L24.5311 12.4359L20.6636 13.401L27.2936 24.9818L20.6636 26.6362L17.2104 24.0168L14.586 24.7061L19.1442 32.5646ZM49.9462 44.5591H5.74598C4.2266 44.5591 2.92546 44.0186 1.84255 42.9378C0.759643 41.8568 0.21911 40.559 0.220952 39.0443V28.015C1.74034 28.015 3.04148 27.4745 4.12439 26.3936C5.20729 25.3127 5.74782 24.0149 5.74598 22.5002C5.74598 20.9837 5.20453 19.685 4.12162 18.6041C3.03872 17.5232 1.73849 16.9837 0.220952 16.9855V5.95612C0.220952 4.43957 0.762407 3.14086 1.84531 2.05998C2.92821 0.979092 4.22844 0.439573 5.74598 0.441411H49.9462C51.4656 0.441411 52.7668 0.981852 53.8497 2.06273C54.9326 3.14362 55.4731 4.44141 55.4713 5.95612V39.0443C55.4713 40.5609 54.9298 41.8596 53.8469 42.9405C52.764 44.0214 51.4638 44.5609 49.9462 44.5591Z" fill="url(#paint0_linear_93_462)"/>
<path d="M68.4207 25.3174V10.5053H71.6369V25.5036C71.6369 27.4268 72.036 28.8124 72.8336 29.6602C73.6312 30.5082 74.7192 30.9321 76.0969 30.9321C77.4746 30.9321 78.5573 30.5082 79.3443 29.6602C80.1419 28.8124 80.541 27.4268 80.541 25.5036V10.5053H83.742V25.3174C83.742 28.0782 83.0478 30.1255 81.6595 31.4594C80.2718 32.7933 78.4221 33.4602 76.1122 33.4602C73.7917 33.4602 71.9273 32.7933 70.5184 31.4594C69.1195 30.1255 68.4207 28.0782 68.4207 25.3174ZM88.6224 13.1264V10.5053H105.032V13.1264H98.4587V33.088H95.2266V13.1264H88.6224ZM109.943 33.088V18.0587H113.083V33.088H109.943ZM109.617 12.9714C109.617 12.4647 109.778 12.0407 110.099 11.6995C110.431 11.3479 110.902 11.1722 111.513 11.1722C112.124 11.1722 112.59 11.3428 112.912 11.684C113.243 12.0253 113.409 12.4543 113.409 12.9714C113.409 13.478 113.243 13.9071 112.912 14.2587C112.58 14.6102 112.109 14.7861 111.497 14.7861C110.897 14.7861 110.431 14.6102 110.099 14.2587C109.778 13.9071 109.617 13.478 109.617 12.9714ZM118.709 25.8137V25.3019C118.709 22.9547 119.346 21.0935 120.62 19.7183C121.904 18.3431 123.64 17.6554 125.826 17.6554C127.929 17.6554 129.524 18.1776 130.612 19.222C131.71 20.256 132.269 21.5692 132.29 23.1615L132.306 23.3786H129.245V23.208C129.245 22.2775 128.96 21.5277 128.389 20.9591C127.83 20.3904 126.991 20.106 125.873 20.106C124.567 20.106 123.578 20.561 122.904 21.4709C122.231 22.3808 121.895 23.6372 121.895 25.2398V25.8758C121.895 27.4061 122.226 28.6521 122.889 29.6137C123.552 30.565 124.541 31.0406 125.857 31.0406C127.006 31.0406 127.862 30.7511 128.42 30.1721C128.991 29.5931 129.275 28.833 129.275 27.8921V27.706H132.306V27.9231C132.306 29.5051 131.746 30.8286 130.627 31.8937C129.519 32.9484 127.919 33.4757 125.826 33.4757C123.65 33.4757 121.92 32.783 120.636 31.3974C119.351 30.0118 118.709 28.1506 118.709 25.8137ZM137.699 33.088V10.0244H140.822V24.4023L146.711 18.0587H150.317L140.822 28.0317V33.088H137.699ZM147.395 33.088L141.77 25.2709L143.744 23.0994L151.016 33.088H147.395ZM154.016 25.7982V25.3019C154.016 23.0167 154.658 21.1762 155.943 19.7803C157.238 18.374 158.947 17.6709 161.071 17.6709C163.184 17.6709 164.805 18.3275 165.935 19.6407C167.074 20.9539 167.644 22.7685 167.644 25.0847V26.1705H155.834V24.0766H164.567V23.8749C164.567 22.8513 164.288 21.9621 163.728 21.2072C163.169 20.442 162.288 20.0595 161.087 20.0595C159.781 20.0595 158.797 20.5403 158.134 21.5019C157.471 22.4532 157.14 23.6733 157.14 25.1623V25.8448C157.14 27.3957 157.492 28.6521 158.196 29.6137C158.901 30.5753 159.942 31.0562 161.319 31.0562C162.252 31.0562 163.039 30.8648 163.682 30.4823C164.334 30.0894 164.852 29.5982 165.236 29.0088L167.504 30.3427C167.059 31.1906 166.318 31.9247 165.282 32.5451C164.257 33.1655 162.946 33.4757 161.351 33.4757C159.02 33.4757 157.212 32.7777 155.927 31.3819C154.654 29.9756 154.016 28.1144 154.016 25.7982ZM171.297 20.4628V18.0587H180.31V20.4628H171.297ZM173.846 28.9003V19.0358L173.892 18.7567V13.2816H176.938V28.6211C176.938 29.5827 177.083 30.2186 177.373 30.5288C177.673 30.8286 178.134 30.9786 178.756 30.9786C179.015 30.9786 179.264 30.9579 179.502 30.9166C179.75 30.8648 179.994 30.7924 180.232 30.6994V33.088C179.994 33.181 179.667 33.2637 179.253 33.3361C178.849 33.4189 178.378 33.4602 177.839 33.4602C176.596 33.4602 175.617 33.1138 174.902 32.421C174.198 31.7179 173.846 30.5443 173.846 28.9003Z" fill="black"/>
</g>
<defs>
<linearGradient id="paint0_linear_93_462" x1="27.8461" y1="0.441406" x2="27.8461" y2="44.5591" gradientUnits="userSpaceOnUse">
<stop offset="0.510417" stop-color="#015BBB"/>
<stop offset="0.510517" stop-color="#FED601"/>
</linearGradient>
<clipPath id="clip0_93_462">
<rect width="181" height="45" fill="white"/>
</clipPath>
</defs>
</svg>
