<svg width="56" height="45" viewBox="0 0 56 45" fill="none" xmlns="http://www.w3.org/2000/svg">
<path d="M18.9232 32.1232L43.5096 25.6434C44.2003 25.4596 44.7187 25.034 45.0649 24.3667C45.4112 23.6995 45.4913 23.0221 45.3053 22.3346C45.1211 21.6452 44.7187 21.1287 44.098 20.7849C43.4774 20.4412 42.8208 20.3603 42.1284 20.5423L35.3602 22.3346L24.3101 11.9945L20.4426 12.9595L27.0727 24.5404L20.4426 26.1948L16.9895 23.5754L14.3651 24.2647L18.9232 32.1232ZM49.7253 44.1177H5.52503C4.00565 44.1177 2.70451 43.5772 1.6216 42.4964C0.538695 41.4154 -0.00183713 40.1176 4.69093e-06 38.6029V27.5736C1.51939 27.5736 2.82054 27.0331 3.90344 25.9522C4.98634 24.8713 5.52688 23.5735 5.52503 22.0588C5.52503 20.5423 4.98358 19.2436 3.90067 18.1627C2.81777 17.0818 1.51755 16.5423 4.69093e-06 16.5441V5.51471C4.69093e-06 3.99817 0.54146 2.69945 1.62436 1.61857C2.70727 0.537686 4.00749 -0.0018337 5.52503 4.68218e-06H49.7253C51.2447 4.68218e-06 52.5458 0.540445 53.6287 1.62133C54.7117 2.70221 55.2521 4.00001 55.2503 5.51471V38.6029C55.2503 40.1195 54.7089 41.4182 53.626 42.4991C52.543 43.58 51.2428 44.1195 49.7253 44.1177Z" fill="black"/>
</svg>
