<svg width="55" height="38" viewBox="0 0 55 38" fill="none" xmlns="http://www.w3.org/2000/svg">
<path fill-rule="evenodd" clip-rule="evenodd" d="M50 32.5C50.663 32.5 51.2989 32.7634 51.7678 33.2322C52.2366 33.7011 52.5 34.3369 52.5 35C52.5 35.663 52.2366 36.2989 51.7678 36.7678C51.2989 37.2366 50.663 37.5 50 37.5H2.50002C1.83697 37.5 1.20109 37.2366 0.732248 36.7678C0.263408 36.2989 1.56671e-05 35.663 1.56671e-05 35C1.56671e-05 34.3369 0.263408 33.7011 0.732248 33.2322C1.20109 32.7634 1.83697 32.5 2.50002 32.5H50ZM27.5 0C35.56 0 42.355 2.6875 47.17 6.4725C51.8975 10.1875 55 15.2125 55 20C55 22.105 54.355 23.9 53.2175 25.35C52.11 26.765 50.6325 27.725 49.1275 28.385C46.1625 29.68 42.635 30 40 30H4.98501C4.3292 29.9997 3.6799 29.87 3.07426 29.6184C2.46862 29.3669 1.91854 28.9983 1.45551 28.5339C0.99248 28.0695 0.625587 27.5183 0.375834 26.9119C0.126082 26.3055 -0.00162805 25.6558 1.56671e-05 25V5C1.56671e-05 2.2475 2.22501 0 4.99501 0H27.5ZM15 5H5.00001V12.5H15V5ZM27.5 5H20V12.5H30V5.1C29.4493 5.05542 28.8974 5.02624 28.345 5.0125L27.5 5ZM35 5.9575V12.5H46.3775C45.6658 11.7438 44.8978 11.0426 44.08 10.4025C41.675 8.5125 38.605 6.915 35 5.9575Z" fill="black"/>
</svg>
